<?xml version="1.0" encoding="UTF-8"?>
<svg version="1.1" xmlns="http://www.w3.org/2000/svg" width="256" height="256">
<path d="M0 0 C1.03144135 -0.0071553 2.06288269 -0.01431061 3.12557983 -0.02168274 C4.24667145 -0.02437164 5.36776306 -0.02706055 6.52282715 -0.02983093 C8.30676376 -0.03968773 8.30676376 -0.03968773 10.1267395 -0.04974365 C14.0627987 -0.06945326 17.9988445 -0.08114334 21.93493652 -0.09111023 C23.29577148 -0.09516132 24.65660624 -0.09927834 26.0174408 -0.10346031 C32.41666937 -0.12250081 38.81588653 -0.13673088 45.21513796 -0.14507228 C52.57178004 -0.1548228 59.9281195 -0.18108947 67.28465509 -0.22157317 C72.9893729 -0.25187536 78.69400469 -0.26655465 84.39880133 -0.26985329 C87.79691374 -0.2721889 91.1947025 -0.28095149 94.59272766 -0.30631447 C98.39518925 -0.33080749 102.19687241 -0.32972145 105.99938965 -0.32279968 C107.10428741 -0.33560974 108.20918518 -0.3484198 109.3475647 -0.36161804 C124.0281841 -0.26490121 138.05713526 5.06272382 148.77868652 15.14717102 C157.66199285 25.03039275 163.8612419 36.86733217 163.92585754 50.3684845 C163.9365905 51.91564651 163.9365905 51.91564651 163.94754028 53.49406433 C163.95022919 54.61515594 163.95291809 55.73624756 163.95568848 56.89131165 C163.96225967 58.08060272 163.96883087 59.2698938 163.9756012 60.495224 C163.9953108 64.4312832 164.00700088 68.367329 164.01696777 72.30342102 C164.02101886 73.66425597 164.02513588 75.02509073 164.02931786 76.38592529 C164.04835835 82.78515386 164.06258842 89.18437103 164.07092983 95.58362246 C164.08068034 102.94026454 164.10694701 110.29660399 164.14743072 117.65313959 C164.1777329 123.3578574 164.19241219 129.06248919 164.19571084 134.76728582 C164.19804645 138.16539824 164.20680903 141.563187 164.23217201 144.96121216 C164.25666504 148.76367375 164.25557899 152.56535691 164.24865723 156.36787415 C164.26787231 158.02522079 164.26787231 158.02522079 164.28747559 159.71604919 C164.19075875 174.3966686 158.86313372 188.42561976 148.77868652 199.14717102 C138.8954648 208.03047735 127.05852537 214.2297264 113.55737305 214.29434204 C112.5259317 214.30149734 111.49449036 214.30865265 110.43179321 214.31602478 C108.75015579 214.32005814 108.75015579 214.32005814 107.0345459 214.32417297 C105.84525482 214.33074417 104.65596375 214.33731537 103.43063354 214.34408569 C99.49457434 214.3637953 95.55852854 214.37548538 91.62243652 214.38545227 C90.26160157 214.38950336 88.90076681 214.39362038 87.53993225 214.39780235 C81.14070368 214.41684285 74.74148652 214.43107292 68.34223509 214.43941432 C60.985593 214.44916484 53.62925355 214.47543151 46.27271795 214.51591522 C40.56800014 214.5462174 34.86336836 214.56089669 29.15857172 214.56419533 C25.76045931 214.56653095 22.36267055 214.57529353 18.96464539 214.60065651 C15.1621838 214.62514953 11.36050063 214.62406349 7.5579834 214.61714172 C5.90063675 214.63635681 5.90063675 214.63635681 4.20980835 214.65596008 C-10.47081105 214.55924325 -24.49976222 209.23161822 -35.22131348 199.14717102 C-44.10461981 189.2639493 -50.30386886 177.42700987 -50.3684845 163.92585754 C-50.3756398 162.8944162 -50.3827951 161.86297485 -50.39016724 160.80027771 C-50.39285614 159.6791861 -50.39554504 158.55809448 -50.39831543 157.4030304 C-50.40488663 156.21373932 -50.41145782 155.02444824 -50.41822815 153.79911804 C-50.43793776 149.86305884 -50.44962783 145.92701304 -50.45959473 141.99092102 C-50.46364581 140.63008607 -50.46776284 139.26925131 -50.47194481 137.90841675 C-50.4909853 131.50918818 -50.50521538 125.10997101 -50.51355678 118.71071959 C-50.5233073 111.3540775 -50.54957396 103.99773805 -50.59005767 96.64120245 C-50.62035985 90.93648464 -50.63503915 85.23185285 -50.63833779 79.52705622 C-50.6406734 76.1289438 -50.64943598 72.73115505 -50.67479897 69.33312988 C-50.69929199 65.5306683 -50.69820595 61.72898513 -50.69128418 57.9264679 C-50.71049927 56.26912125 -50.71049927 56.26912125 -50.73010254 54.57829285 C-50.63338571 39.89767345 -45.30576067 25.86872228 -35.22131348 15.14717102 C-25.33809175 6.26386469 -13.50115233 0.06461564 0 0 Z M104.77868652 44.14717102 C103.80837596 47.20650314 103.48174869 49.94937893 103.77868652 53.14717102 C105.76677189 56.60791221 107.88802841 59.03555442 111.77868652 60.14717102 C116.40013279 60.14717102 118.23871879 59.62969538 121.71618652 56.52217102 C124.13068545 52.57117277 124.52284234 50.69478989 123.77868652 46.14717102 C121.98306247 43.39388081 120.7261373 41.62089641 117.77868652 40.14717102 C112.14487308 39.68538303 108.56764572 39.43967626 104.77868652 44.14717102 Z M15.77868652 73.14717102 C6.95850879 84.59819488 1.98499413 98.61460205 3.77868652 113.14717102 C6.62319713 128.39246946 13.27314837 140.82550817 25.72009277 150.41279602 C38.06303942 158.59094472 51.88451428 162.17983628 66.50524902 159.45185852 C81.52478379 156.06363873 93.5601313 147.94317587 102.15368652 135.08467102 C110.03934393 121.45238069 111.4956972 107.16183346 107.61340332 92.04316711 C105.92883075 86.06820985 103.54676555 81.11495234 99.77868652 76.14717102 C99.14188965 75.30670227 98.50509277 74.46623352 97.84899902 73.60029602 C87.92964752 61.60987112 74.99949936 55.63035437 59.68884277 53.77217102 C42.53853028 53.0355133 27.22004043 60.71498091 15.77868652 73.14717102 Z " fill="#FFFFFF" transform="translate(71.2213134765625,20.852828979492188)"/>
<path d="M0 0 C8.34468007 4.97590182 13.53387008 11.86345977 16.109375 21.2578125 C17.10789012 32.35758522 16.45884702 41.9922991 9.359375 51.0703125 C3.70168013 57.1280464 -3.34488592 60.84888618 -11.625 61.59375 C-22.35447774 61.83515993 -31.19802606 60.58332943 -39.359375 52.9609375 C-46.75303791 44.73737365 -48.47252567 36.02335615 -48.203125 25.24609375 C-47.72879865 16.86039919 -44.11592977 9.8548755 -37.890625 4.2578125 C-27.15195714 -3.81766573 -12.32399863 -5.91386512 0 0 Z " fill="#FFFFFF" transform="translate(143.890625,98.7421875)"/>
</svg>
