<?xml version="1.0" encoding="UTF-8"?>
<svg version="1.1" xmlns="http://www.w3.org/2000/svg" width="256" height="256">
<path d="M0 0 C2.70006293 1.76789835 4.86785463 3.35524534 7.046875 5.7421875 C8.81402624 7.68994449 8.81402624 7.68994449 11.015625 7.6640625 C22.07779229 4.99521794 32.98967012 0.92226202 43 -4.5 C41.48213954 7.16535456 34.43260253 14.81733248 26 22.5 C31.79859195 21.93189471 36.97686594 20.76320265 42.5 18.9375 C43.22703125 18.70353516 43.9540625 18.46957031 44.703125 18.22851562 C46.47080261 17.65867219 48.23570969 17.08024596 50 16.5 C46.94927943 25.17452363 38.39084506 35.96581529 30.22216797 40.4831543 C27.29795842 42.17339944 25.33189172 43.31444384 24.39233398 46.6706543 C24.18839739 49.36235417 24.18623338 51.98889674 24.25 54.6875 C24.2255836 56.67850181 24.19292157 58.66941824 24.15234375 60.66015625 C24.1354248 61.64902832 24.11850586 62.63790039 24.10107422 63.65673828 C22.95230976 95.97198207 7.38222894 127.13942156 -13 151.5 C-13.72445312 152.36753906 -14.44890625 153.23507813 -15.1953125 154.12890625 C-19.44452992 159.05299938 -23.95978646 163.39570345 -29 167.5 C-29.91136719 168.26054687 -30.82273438 169.02109375 -31.76171875 169.8046875 C-49.81046146 184.34332341 -71.24035371 194.11928273 -94 198.5 C-94.9070166 198.67732666 -95.8140332 198.85465332 -96.74853516 199.03735352 C-105.33727688 200.54625912 -113.73532635 200.84038897 -122.42773438 200.81567383 C-124.7335588 200.81252247 -127.03808362 200.83604239 -129.34375 200.86132812 C-143.16125443 200.92084668 -156.50331731 198.97342708 -169.75 194.9375 C-170.56218994 194.69281982 -171.37437988 194.44813965 -172.21118164 194.19604492 C-183.67268497 190.55273281 -196.08395582 185.4025441 -206 178.5 C-206 177.84 -206 177.18 -206 176.5 C-204.88625 176.52320313 -203.7725 176.54640625 -202.625 176.5703125 C-182.64816374 176.86363544 -165.09070862 173.91502688 -146.9375 165.5 C-145.9021814 165.02022705 -145.9021814 165.02022705 -144.84594727 164.53076172 C-140.18638526 162.28178728 -136.14106367 159.60175901 -132 156.5 C-132.93199219 156.29246094 -133.86398438 156.08492187 -134.82421875 155.87109375 C-151.15458156 151.92472701 -163.44073437 145.11039818 -172.9375 130.875 C-175.41600468 126.79579437 -177.06545395 123.17273026 -178 118.5 C-177.04738281 118.51160156 -176.09476563 118.52320313 -175.11328125 118.53515625 C-173.85902344 118.54417969 -172.60476562 118.55320312 -171.3125 118.5625 C-170.07113281 118.57410156 -168.82976562 118.58570313 -167.55078125 118.59765625 C-164.53764546 118.51478673 -161.91724661 118.20839449 -159 117.5 C-159.59425781 117.3040625 -160.18851563 117.108125 -160.80078125 116.90625 C-175.23311913 111.6989368 -185.0999626 102.29092523 -191.7121582 88.64306641 C-195.35252951 80.80113065 -196.31762353 74.1111267 -196 65.5 C-195.47792969 65.69335938 -194.95585937 65.88671875 -194.41796875 66.0859375 C-188.36073009 68.2287785 -182.33891775 69.49288223 -176 70.5 C-176.89460938 69.80003906 -177.78921875 69.10007812 -178.7109375 68.37890625 C-188.93098699 59.83619313 -194.18119503 47.43372423 -196 34.5 C-196.86682041 22.74791564 -194.83910605 11.7687727 -189 1.5 C-188.34 1.5 -187.68 1.5 -187 1.5 C-185.6953125 2.828125 -185.6953125 2.828125 -184.125 4.75 C-174.23966267 16.25588443 -163.71926846 25.24310019 -151 33.5 C-150.40993164 33.88671875 -149.81986328 34.2734375 -149.21191406 34.671875 C-128.6571747 47.91906254 -104.84430898 53.07886002 -81 56.5 C-81.15984375 55.6028125 -81.3196875 54.705625 -81.484375 53.78125 C-83.63487802 40.09623078 -80.47643794 26.13176345 -73 14.5 C-55.67055618 -8.3365555 -24.68597047 -15.06427332 0 0 Z " fill="#FFFFFF" transform="translate(206,31.5)"/>
</svg>
