<?xml version="1.0" encoding="UTF-8"?>
<svg version="1.1" xmlns="http://www.w3.org/2000/svg" width="256" height="256">
<path d="M0 0 C11.43788179 9.52150199 21.05573351 19.95308682 29.15600586 32.43188477 C30.08993164 33.82213867 30.08993164 33.82213867 31.04272461 35.24047852 C48.41944572 62.76989061 53.1087433 99.25010474 45.99511719 130.80932617 C40.13802649 154.00489128 28.65646052 174.19742411 12.15600586 191.43188477 C11.13120117 192.55143555 11.13120117 192.55143555 10.08569336 193.69360352 C3.82322782 200.31425435 -3.28747676 205.41151812 -10.84399414 210.43188477 C-11.77727539 211.06094727 -12.71055664 211.69000977 -13.67211914 212.33813477 C-41.2422013 229.66790069 -77.63864173 234.38993555 -109.22143555 227.27099609 C-122.97976336 223.79689346 -137.00416116 218.32510675 -148.84399414 210.43188477 C-155.00379509 210.75912027 -160.45587198 212.40394938 -166.26977539 214.37329102 C-167.13918259 214.66042465 -168.00858978 214.94755829 -168.90434265 215.24339294 C-171.65742401 216.15344328 -174.40714905 217.07311426 -177.15649414 217.99438477 C-179.92401443 218.91817357 -182.69220014 219.83977212 -185.46220398 220.75608826 C-187.17989033 221.32461564 -188.89611191 221.89759205 -190.610672 222.47547913 C-191.38545395 222.73252121 -192.1602359 222.98956329 -192.95849609 223.25439453 C-193.63830032 223.48232193 -194.31810455 223.71024933 -195.01850891 223.94508362 C-196.84399414 224.43188477 -196.84399414 224.43188477 -199.84399414 224.43188477 C-198.62811565 218.22378588 -196.88904056 212.45788584 -194.62915039 206.55688477 C-194.0185443 204.89611721 -193.40987691 203.23463581 -192.80297852 201.57250977 C-191.85674587 198.99147258 -190.9006014 196.41661019 -189.91113281 193.85180664 C-185.83268904 184.38888314 -185.83268904 184.38888314 -185.46313477 174.42944336 C-186.72716988 172.12941577 -188.07015778 170.356524 -189.84399414 168.43188477 C-190.42922852 167.49602539 -191.01446289 166.56016602 -191.61743164 165.59594727 C-192.14594727 164.75805664 -192.67446289 163.92016602 -193.21899414 163.05688477 C-208.99554241 135.90334853 -212.76037943 100.08224373 -205.10571289 69.76782227 C-198.68450283 46.90403703 -187.27610404 27.47896883 -170.84399414 10.43188477 C-170.18915039 9.71387695 -169.53430664 8.99586914 -168.85961914 8.25610352 C-162.960773 1.96652184 -155.98283107 -2.80281501 -148.84399414 -7.56811523 C-147.90942383 -8.1984668 -146.97485352 -8.82881836 -146.01196289 -9.47827148 C-101.92324355 -37.1677533 -40.21990145 -32.30273295 0 0 Z M-145.09399414 41.05688477 C-152.7463502 51.25000345 -155.23586551 62.63311036 -153.45336914 75.18188477 C-148.03851734 100.72887789 -126.56274651 126.45289578 -106.84399414 142.43188477 C-105.91071289 143.20274414 -104.97743164 143.97360352 -104.01586914 144.76782227 C-85.40132491 159.83422558 -59.451621 173.45112063 -35.01196289 172.77954102 C-24.85345249 171.66473531 -15.61637404 166.52450918 -8.46899414 159.30688477 C-4.15090499 153.92126802 -3.27944652 146.98215471 -2.46118164 140.31079102 C-2.55303572 137.27990948 -2.55303572 137.27990948 -4.97924805 135.4519043 C-7.92061051 133.37786023 -10.82198467 131.79489699 -14.06274414 130.23266602 C-15.24223633 129.66354492 -16.42172852 129.09442383 -17.63696289 128.50805664 C-18.24588379 128.21858154 -18.85480469 127.92910645 -19.48217773 127.63085938 C-21.34298834 126.74486366 -23.19716781 125.84599474 -25.05102539 124.94555664 C-33.1715826 120.34383254 -33.1715826 120.34383254 -41.98608398 120.15429688 C-44.0179147 121.55148086 -45.16166976 122.85615402 -46.57055664 124.87329102 C-47.04493164 125.5390918 -47.51930664 126.20489258 -48.00805664 126.89086914 C-48.49016602 127.5850293 -48.97227539 128.27918945 -49.46899414 128.99438477 C-50.43664775 130.37329116 -51.40783783 131.74972463 -52.38305664 133.12329102 C-53.02041748 134.03896851 -53.02041748 134.03896851 -53.6706543 134.97314453 C-54.84399414 136.43188477 -54.84399414 136.43188477 -56.84399414 137.43188477 C-62.79886362 137.95424174 -66.74858672 136.61041662 -71.96899414 134.05688477 C-72.70964111 133.69965332 -73.45028809 133.34242188 -74.21337891 132.97436523 C-90.86008719 124.63219011 -106.45256347 110.21474611 -114.84399414 93.43188477 C-115.45628027 90.49291133 -115.66654001 89.24910436 -114.84399414 86.43188477 C-112.74024778 83.63254484 -110.45588744 81.1684868 -108.00805664 78.66625977 C-104.9093057 75.46682739 -103.84164878 74.19099844 -103.85571289 69.63891602 C-104.71970768 63.39108257 -107.30553676 57.73809842 -109.82666016 52.00976562 C-110.65961789 50.1122688 -111.46867316 48.20579493 -112.27563477 46.29711914 C-115.43266447 38.59223888 -115.43266447 38.59223888 -120.84399414 32.43188477 C-131.10328232 30.43865163 -138.49115109 33.33738443 -145.09399414 41.05688477 Z " fill="#FFFFFF" transform="translate(207.843994140625,26.568115234375)"/>
</svg>
